<?xml version="1.0" encoding="UTF-8"?>
<svg version="1.1" xmlns="http://www.w3.org/2000/svg" width="144" height="144">
<path d="M0 0 C1.87695193 0.00502509 3.75390516 0.00958621 5.63085938 0.01367188 C10.19143887 0.02459742 14.75195479 0.04180643 19.3125 0.0625 C19.3125 0.7225 19.3125 1.3825 19.3125 2.0625 C21.2925 2.0625 23.2725 2.0625 25.3125 2.0625 C25.3125 2.7225 25.3125 3.3825 25.3125 4.0625 C29.7675 5.0525 29.7675 5.0525 34.3125 6.0625 C34.3125 6.7225 34.3125 7.3825 34.3125 8.0625 C35.22 8.145 36.1275 8.2275 37.0625 8.3125 C40.76351153 9.16657958 41.89926375 10.2183287 44.3125 13.0625 C46.13789198 15.13082488 46.13789198 15.13082488 48.3125 15.9375 C50.81603069 17.34573601 51.06508728 18.50485522 52.3125 21.0625 C53.4161027 22.66082116 54.54300888 24.24319776 55.6875 25.8125 C65.2313207 39.37581365 66.79524797 52.01646837 66.64868164 68.29956055 C66.62479165 71.1498579 66.62817488 73.99923534 66.63476562 76.84960938 C66.62919727 78.66146393 66.62209273 80.47331456 66.61328125 82.28515625 C66.61419266 83.13715103 66.61510406 83.98914581 66.61604309 84.86695862 C66.54363717 90.83136283 66.54363717 90.83136283 64.3125 93.0625 C62.45300293 93.32319641 62.45300293 93.32319641 60.16992188 93.3371582 C59.31563599 93.34669022 58.4613501 93.35622223 57.58117676 93.36604309 C56.65720093 93.36513168 55.7332251 93.36422028 54.78125 93.36328125 C53.83439331 93.36756638 52.88753662 93.3718515 51.9119873 93.37626648 C49.90796713 93.38201531 47.90392608 93.38250599 45.89990234 93.37817383 C42.82483548 93.37501268 39.75072913 93.39847027 36.67578125 93.42382812 C34.73177205 93.42610085 32.78776026 93.42680474 30.84375 93.42578125 C29.91977417 93.434991 28.99579834 93.44420074 28.04382324 93.45368958 C27.18953735 93.44746078 26.33525146 93.44123199 25.45507812 93.43481445 C24.324953 93.43575859 24.324953 93.43575859 23.17199707 93.4367218 C21.3125 93.0625 21.3125 93.0625 19.3125 90.0625 C19.04125977 87.66162109 19.04125977 87.66162109 19.00390625 84.8359375 C18.97876953 83.80339844 18.95363281 82.77085938 18.92773438 81.70703125 C18.89295702 79.55083526 18.86162924 77.39458048 18.83398438 75.23828125 C18.60420177 66.19269304 17.19025884 58.18705616 11.3125 51.0625 C9.47549211 50.29007731 9.47549211 50.29007731 7.3125 50.0625 C0.56964286 47.31964286 0.56964286 47.31964286 -0.6875 46.0625 C-7.06362244 46.0064708 -12.41952453 46.8856332 -17.93359375 50.125 C-19.6875 51.0625 -19.6875 51.0625 -21.77734375 51.5234375 C-24.02109194 51.95827213 -24.02109194 51.95827213 -25.8125 54.6875 C-30.53908882 63.19535987 -30.05262096 71.73955408 -30.16601562 81.25390625 C-30.19244141 82.34058594 -30.21886719 83.42726563 -30.24609375 84.546875 C-30.25954834 85.53397461 -30.27300293 86.52107422 -30.28686523 87.53808594 C-30.76050477 90.5225057 -31.3552511 91.21871415 -33.6875 93.0625 C-35.58459473 93.44345093 -35.58459473 93.44345093 -37.74414062 93.45068359 C-38.96055237 93.46486832 -38.96055237 93.46486832 -40.20153809 93.4793396 C-41.07346802 93.47326691 -41.94539795 93.46719421 -42.84375 93.4609375 C-44.19176697 93.46524277 -44.19176697 93.46524277 -45.5670166 93.46963501 C-47.46672191 93.47167615 -49.3664482 93.46614278 -51.26611328 93.45361328 C-54.1765841 93.43756021 -57.08566621 93.45346013 -59.99609375 93.47265625 C-61.8411489 93.47067383 -63.68620319 93.46683017 -65.53125 93.4609375 C-66.40317993 93.46701019 -67.27510986 93.47308289 -68.17346191 93.4793396 C-68.98440308 93.46988312 -69.79534424 93.46042664 -70.63085938 93.45068359 C-71.69983459 93.44710342 -71.69983459 93.44710342 -72.79040527 93.44345093 C-75.31104025 92.93728842 -76.18394665 92.13057129 -77.6875 90.0625 C-78.04826355 88.06929016 -78.04826355 88.06929016 -78.02807617 85.7746582 C-78.02784958 84.91399246 -78.02762299 84.05332672 -78.02738953 83.1665802 C-78.01190567 82.24149155 -77.99642181 81.31640289 -77.98046875 80.36328125 C-77.97622391 79.41309616 -77.97197906 78.46291107 -77.96760559 77.4839325 C-77.95080484 74.44733412 -77.91314992 71.41139798 -77.875 68.375 C-77.85995497 66.31706687 -77.84626625 64.25912335 -77.83398438 62.20117188 C-77.80089671 57.15469252 -77.74910462 52.10870856 -77.6875 47.0625 C-74.14923745 45.88307915 -71.34601274 45.94960811 -67.61328125 45.96484375 C-66.58753242 45.96696617 -66.58753242 45.96696617 -65.5410614 45.96913147 C-63.36066278 45.97472124 -61.18036749 45.98727178 -59 46 C-57.52018378 46.00501633 -56.04036594 46.009579 -54.56054688 46.01367188 C-50.93616443 46.02468729 -47.3118423 46.04194488 -43.6875 46.0625 C-43.6875 45.4025 -43.6875 44.7425 -43.6875 44.0625 C-42.57375 43.794375 -41.46 43.52625 -40.3125 43.25 C-36.46909049 42.40440981 -36.46909049 42.40440981 -34.6875 39.0625 C-34.34973723 35.76491119 -34.34973723 35.76491119 -34.34375 31.98046875 C-34.3291272 31.2886702 -34.31450439 30.59687164 -34.29943848 29.8841095 C-34.2529819 27.6727984 -34.21878111 25.46157466 -34.1875 23.25 C-34.14614696 20.34733455 -34.09234373 17.44527834 -34.03125 14.54296875 C-34.01255859 13.25285889 -33.99386719 11.96274902 -33.97460938 10.63354492 C-33.69254603 7.12526215 -32.95122692 4.33311859 -31.6875 1.0625 C-21.15820439 -0.2955755 -10.59228013 -0.04951847 0 0 Z M-10.6875 44.0625 C-10.6875 44.3925 -10.6875 44.7225 -10.6875 45.0625 C-7.3875 45.0625 -4.0875 45.0625 -0.6875 45.0625 C-0.6875 44.7325 -0.6875 44.4025 -0.6875 44.0625 C-3.9875 44.0625 -7.2875 44.0625 -10.6875 44.0625 Z " fill="#FEFEFE" transform="translate(77.6875,24.9375)"/>
<path d="M0 0 C0.33 0 0.66 0 1 0 C1 10.89 1 21.78 1 33 C0.67 33 0.34 33 0 33 C0 22.11 0 11.22 0 0 Z " fill="#FFFFFF" transform="translate(42,31)"/>
<path d="M0 0 C10.23 0 20.46 0 31 0 C31 0.33 31 0.66 31 1 C20.77 1 10.54 1 0 1 C0 0.67 0 0.34 0 0 Z " fill="#FFFFFF" transform="translate(3,70)"/>
<path d="M0 0 C0.33 0 0.66 0 1 0 C1 7.92 1 15.84 1 24 C0.67 24 0.34 24 0 24 C0 16.08 0 8.16 0 0 Z " fill="#FFFFFF" transform="translate(48,91)"/>
<path d="M0 0 C0.33 0 0.66 0 1 0 C1 7.59 1 15.18 1 23 C0.67 23 0.34 23 0 23 C0 15.41 0 7.82 0 0 Z " fill="#FFFFFF" transform="translate(95,92)"/>
<path d="M0 0 C0.33 0 0.66 0 1 0 C1 1.65 1 3.3 1 5 C0.67 5 0.34 5 0 5 C0 3.35 0 1.7 0 0 Z " fill="#FFFFFF" transform="translate(94,86)"/>
<path d="M0 0 C1 4 1 4 1 4 Z " fill="#FFFFFF" transform="translate(49,86)"/>
<path d="M0 0 C0.99 0.495 0.99 0.495 2 1 C1.67 1.66 1.34 2.32 1 3 C0.67 2.01 0.34 1.02 0 0 Z " fill="#FFFFFF" transform="translate(89,77)"/>
<path d="M0 0 C0.99 0.495 0.99 0.495 2 1 C1.67 1.66 1.34 2.32 1 3 C0.67 2.01 0.34 1.02 0 0 Z " fill="#FFFFFF" transform="translate(131,46)"/>
<path d="M0 0 C4 1 4 1 4 1 Z " fill="#FFFFFF" transform="translate(48,25)"/>
<path d="" fill="#FFFFFF" transform="translate(0,0)"/>
<path d="" fill="#FFFFFF" transform="translate(0,0)"/>
<path d="" fill="#FFFFFF" transform="translate(0,0)"/>
<path d="M0 0 C3 1 3 1 3 1 Z " fill="#FFFFFF" transform="translate(103,28)"/>
<path d="M0 0 C3 1 3 1 3 1 Z " fill="#FFFFFF" transform="translate(97,26)"/>
<path d="" fill="#FFFFFF" transform="translate(0,0)"/>
<path d="" fill="#FFFFFF" transform="translate(0,0)"/>
<path d="" fill="#FFFFFF" transform="translate(0,0)"/>
<path d="" fill="#FFFFFF" transform="translate(0,0)"/>
<path d="" fill="#FFFFFF" transform="translate(0,0)"/>
<path d="" fill="#FFFFFF" transform="translate(0,0)"/>
<path d="" fill="#FFFFFF" transform="translate(0,0)"/>
<path d="" fill="#FFFFFF" transform="translate(0,0)"/>
<path d="M0 0 C2 1 2 1 2 1 Z " fill="#FFFFFF" transform="translate(112,32)"/>
<path d="" fill="#FFFFFF" transform="translate(0,0)"/>
<path d="M0 0 C2 1 2 1 2 1 Z " fill="#FFFFFF" transform="translate(106,29)"/>
<path d="" fill="#FFFFFF" transform="translate(0,0)"/>
<path d="" fill="#FFFFFF" transform="translate(0,0)"/>
<path d="" fill="#FFFFFF" transform="translate(0,0)"/>
<path d="" fill="#FFFFFF" transform="translate(0,0)"/>
<path d="" fill="#FFFFFF" transform="translate(0,0)"/>
<path d="" fill="#FFFFFF" transform="translate(0,0)"/>
<path d="" fill="#FFFFFF" transform="translate(0,0)"/>
<path d="" fill="#FFFFFF" transform="translate(0,0)"/>
<path d="" fill="#FFFFFF" transform="translate(0,0)"/>
<path d="" fill="#FFFFFF" transform="translate(0,0)"/>
<path d="" fill="#FFFFFF" transform="translate(0,0)"/>
<path d="" fill="#FFFFFF" transform="translate(0,0)"/>
<path d="" fill="#FFFFFF" transform="translate(0,0)"/>
<path d="" fill="#FFFFFF" transform="translate(0,0)"/>
<path d="" fill="#FFFFFF" transform="translate(0,0)"/>
<path d="" fill="#FFFFFF" transform="translate(0,0)"/>
<path d="" fill="#FFFFFF" transform="translate(0,0)"/>
<path d="" fill="#FFFFFF" transform="translate(0,0)"/>
<path d="" fill="#FFFFFF" transform="translate(0,0)"/>
<path d="" fill="#FFFFFF" transform="translate(0,0)"/>
<path d="" fill="#FFFFFF" transform="translate(0,0)"/>
<path d="" fill="#FFFFFF" transform="translate(0,0)"/>
<path d="" fill="#FFFFFF" transform="translate(0,0)"/>
<path d="" fill="#FFFFFF" transform="translate(0,0)"/>
<path d="" fill="#FFFFFF" transform="translate(0,0)"/>
<path d="" fill="#FFFFFF" transform="translate(0,0)"/>
<path d="" fill="#FFFFFF" transform="translate(0,0)"/>
</svg>
